<svg width="21" height="21" viewBox="0 0 21 21" fill="none" xmlns="http://www.w3.org/2000/svg">
<path d="M9.78575 11.2144C7.76861 11.2144 5.97932 11.6701 4.80361 12.0665C3.93575 12.3601 3.35718 13.1779 3.35718 14.0944L3.35718 16.9286C3.35718 16.9286 10.47 16.9286 10.5 16.9286" stroke="#565D6D" stroke-width="1.71429" stroke-miterlimit="10"/>
<path d="M9.78578 11.2143C7.81364 11.2143 6.21436 8.90068 6.21436 6.92854V6.21425C6.21436 4.24211 7.81364 2.64282 9.78578 2.64282C11.7579 2.64282 13.3572 4.24211 13.3572 6.21425V6.92854C13.3572 8.90068 11.7579 11.2143 9.78578 11.2143Z" stroke="#565D6D" stroke-width="1.71429" stroke-miterlimit="10" stroke-linecap="square"/>
<path d="M15.5 13.3572L15.5 17.6429" stroke="#565D6D" stroke-width="1.71429" stroke-miterlimit="10" stroke-linecap="square"/>
<path d="M13.3572 15.5L17.6429 15.5" stroke="#565D6D" stroke-width="1.71429" stroke-miterlimit="10" stroke-linecap="square"/>
</svg>
