<svg width="16" height="17" viewBox="0 0 16 17" fill="none" xmlns="http://www.w3.org/2000/svg">
<path d="M8.00007 10.7858C9.26244 10.7858 10.2858 9.76244 10.2858 8.50007C10.2858 7.2377 9.26244 6.21436 8.00007 6.21436C6.7377 6.21436 5.71436 7.2377 5.71436 8.50007C5.71436 9.76244 6.7377 10.7858 8.00007 10.7858Z" stroke="#565D6D" stroke-width="1.37143" stroke-miterlimit="10" stroke-linecap="square"/>
<path d="M10.2856 13.7389C9.15793 14.231 7.90147 14.3461 6.70313 14.0668C5.50479 13.7876 4.42859 13.129 3.63459 12.189C2.8406 11.2491 2.37122 10.0779 2.29626 8.84974C2.22131 7.62158 2.54478 6.40204 3.21857 5.37248C3.89237 4.34292 4.88049 3.55835 6.03598 3.13546C7.19146 2.71256 8.45259 2.67393 9.63179 3.02532C10.811 3.3767 11.8453 4.09932 12.5808 5.08572C13.3164 6.07211 13.7139 7.26957 13.7142 8.50001V9.07144C13.7142 9.5261 13.5336 9.96213 13.2121 10.2836C12.8906 10.6051 12.4546 10.7857 11.9999 10.7857C11.5453 10.7857 11.1092 10.6051 10.7878 10.2836C10.4663 9.96213 10.2856 9.5261 10.2856 9.07144L10.2856 6.2143" stroke="#565D6D" stroke-width="1.37143" stroke-miterlimit="10" stroke-linecap="square"/>
</svg>
