<svg width="29" height="29" viewBox="0 0 29 29" fill="none" xmlns="http://www.w3.org/2000/svg">
<path d="M21.75 13.5L21.75 10.5C21.75 8.64348 21.0125 6.86301 19.6997 5.55025C18.387 4.2375 16.6065 3.5 14.75 3.5C12.8935 3.5 11.113 4.2375 9.80025 5.55025C8.4875 6.86301 7.75 8.64348 7.75 10.5L7.75 13.5C7.75 16.8 4.75 17.6 4.75 19.5C4.75 21.2 8.65 22.5 14.75 22.5C20.85 22.5 24.75 21.2 24.75 19.5C24.75 17.6 21.75 16.8 21.75 13.5Z" stroke="#6F7787" stroke-width="2.4" stroke-miterlimit="10" stroke-linecap="square"/>
<path d="M14.75 24.4999C13.739 24.4999 12.789 24.4659 11.895 24.3999C12.0856 25.0079 12.4653 25.5391 12.9788 25.9163C13.4924 26.2935 14.1129 26.4969 14.75 26.4969C15.3872 26.4969 16.0077 26.2935 16.5212 25.9163C17.0347 25.5391 17.4144 25.0079 17.605 24.3999C16.711 24.4659 15.761 24.4999 14.75 24.4999Z" fill="#6F7787"/>
</svg>
