<svg width="32" height="33" viewBox="0 0 32 33" fill="none" xmlns="http://www.w3.org/2000/svg">
<path d="M16.8 22.8999H12" stroke="#6F7787" stroke-width="1.92" stroke-miterlimit="10"/>
<path d="M21.8808 19.5097L19.6616 15.9585" stroke="#6F7787" stroke-width="1.92" stroke-miterlimit="10"/>
<path d="M13.8806 13.4905L11.8086 16.8057" stroke="#6F7787" stroke-width="1.92" stroke-miterlimit="10"/>
<path d="M8 26.8999C10.2091 26.8999 12 25.109 12 22.8999C12 20.6908 10.2091 18.8999 8 18.8999C5.79086 18.8999 4 20.6908 4 22.8999C4 25.109 5.79086 26.8999 8 26.8999Z" stroke="#6F7787" stroke-width="1.92" stroke-miterlimit="10" stroke-linecap="square"/>
<path d="M24 26.8999C26.2091 26.8999 28 25.109 28 22.8999C28 20.6908 26.2091 18.8999 24 18.8999C21.7909 18.8999 20 20.6908 20 22.8999C20 25.109 21.7909 26.8999 24 26.8999Z" stroke="#6F7787" stroke-width="1.92" stroke-miterlimit="10" stroke-linecap="square"/>
<path d="M16 14.1001C18.2091 14.1001 20 12.3092 20 10.1001C20 7.89096 18.2091 6.1001 16 6.1001C13.7909 6.1001 12 7.89096 12 10.1001C12 12.3092 13.7909 14.1001 16 14.1001Z" stroke="#6F7787" stroke-width="1.92" stroke-miterlimit="10" stroke-linecap="square"/>
</svg>
