<svg width="56" height="57" viewBox="0 0 56 57" fill="none" xmlns="http://www.w3.org/2000/svg">
<path d="M28 31.7C29.7674 31.7 31.2 30.2674 31.2 28.5C31.2 26.7327 29.7674 25.3 28 25.3C26.2327 25.3 24.8 26.7327 24.8 28.5C24.8 30.2674 26.2327 31.7 28 31.7Z" stroke="#6F7787" stroke-width="1.92" stroke-miterlimit="10" stroke-linecap="square"/>
<path d="M36.8 28.5C36.7997 27.9157 36.7416 27.3328 36.6264 26.76L39.592 24.58L37.192 20.42L33.8104 21.9032C32.9351 21.1296 31.914 20.5389 30.8072 20.1656L30.4 16.5H25.6L25.1928 20.1656C24.0859 20.5389 23.0648 21.1296 22.1896 21.9032L18.808 20.42L16.408 24.58L19.3736 26.7616C19.1421 27.9101 19.1421 29.0931 19.3736 30.2416L16.408 32.42L18.808 36.58L22.1896 35.0984C23.0648 35.872 24.0859 36.4627 25.1928 36.836L25.6 40.5H30.4L30.8072 36.8344C31.914 36.4611 32.9351 35.8704 33.8104 35.0968L37.192 36.58L39.592 32.42L36.6264 30.2384C36.7414 29.6661 36.7996 29.0838 36.8 28.5Z" stroke="#6F7787" stroke-width="1.92" stroke-miterlimit="10" stroke-linecap="square"/>
</svg>
