<svg width="56" height="57" viewBox="0 0 56 57" fill="none" xmlns="http://www.w3.org/2000/svg">
<rect y="0.5" width="56" height="56" rx="4" fill="#F3F4F6"/>
<path d="M30.3999 23.3C30.3999 25.288 32.0119 27.7 33.9999 27.7C35.9879 27.7 37.5999 25.288 37.5999 23.3C37.5999 21.312 35.9879 19.7 33.9999 19.7C32.0119 19.7 30.3999 21.312 30.3999 23.3Z" stroke="#171A1F" stroke-width="1.92" stroke-miterlimit="10" stroke-linecap="square"/>
<path d="M34.3999 35.6999H39.9999V33.9703C39.9999 32.9919 39.4119 32.1071 38.5031 31.7455C37.4631 31.3311 35.9199 30.8999 33.9999 30.8999C32.0799 30.8999 30.5367 31.3311 29.4967 31.7455C29.0679 31.9167 28.7127 32.2015 28.4543 32.5599" stroke="#171A1F" stroke-width="1.92" stroke-miterlimit="10"/>
<path d="M31.2 38.1H16V35.848C16 34.6272 16.6888 33.5096 17.7864 32.9752C19.0672 32.3512 21.0216 31.7 23.6 31.7C26.1784 31.7 28.1328 32.3512 29.4136 32.9752C30.5112 33.5096 31.2 34.6272 31.2 35.848V38.1Z" stroke="#171A1F" stroke-width="1.92" stroke-miterlimit="10" stroke-linecap="square"/>
<path d="M28 23.2999C28 25.7303 26.0304 28.4999 23.6 28.4999C21.1696 28.4999 19.2 25.7303 19.2 23.2999C19.2 20.8695 21.1696 18.8999 23.6 18.8999C26.0304 18.8999 28 20.8695 28 23.2999Z" stroke="#171A1F" stroke-width="1.92" stroke-miterlimit="10" stroke-linecap="square"/>
</svg>
