<svg width="56" height="57" viewBox="0 0 56 57" fill="none" xmlns="http://www.w3.org/2000/svg">
<path d="M28.8 34.8999H24" stroke="#6F7787" stroke-width="1.92" stroke-miterlimit="10"/>
<path d="M33.8808 31.5097L31.6616 27.9585" stroke="#6F7787" stroke-width="1.92" stroke-miterlimit="10"/>
<path d="M25.8808 25.4905L23.8088 28.8057" stroke="#6F7787" stroke-width="1.92" stroke-miterlimit="10"/>
<path d="M20 38.8999C22.2091 38.8999 24 37.109 24 34.8999C24 32.6908 22.2091 30.8999 20 30.8999C17.7909 30.8999 16 32.6908 16 34.8999C16 37.109 17.7909 38.8999 20 38.8999Z" stroke="#6F7787" stroke-width="1.92" stroke-miterlimit="10" stroke-linecap="square"/>
<path d="M36 38.8999C38.2091 38.8999 40 37.109 40 34.8999C40 32.6908 38.2091 30.8999 36 30.8999C33.7909 30.8999 32 32.6908 32 34.8999C32 37.109 33.7909 38.8999 36 38.8999Z" stroke="#6F7787" stroke-width="1.92" stroke-miterlimit="10" stroke-linecap="square"/>
<path d="M28 26.1001C30.2091 26.1001 32 24.3092 32 22.1001C32 19.891 30.2091 18.1001 28 18.1001C25.7909 18.1001 24 19.891 24 22.1001C24 24.3092 25.7909 26.1001 28 26.1001Z" stroke="#6F7787" stroke-width="1.92" stroke-miterlimit="10" stroke-linecap="square"/>
</svg>
