<svg width="266" height="110" viewBox="0 0 266 110" fill="none" xmlns="http://www.w3.org/2000/svg">
<path d="M67.8513 76.0436L0.843018 104.904V109.814H265.107V0.967285L213.507 33.5077C211.002 35.0877 208 35.7627 205.031 35.4139L175.962 31.9999C172.954 31.6468 169.916 32.3434 167.393 33.9642L98.1824 78.4362C94.5437 80.7744 89.9165 81.1414 85.9318 79.4081L78.2393 76.0624C74.9377 74.6261 71.1588 74.6192 67.8513 76.0436Z" fill="#1DD75B" fill-opacity="0.1"/>
<path d="M0.843018 104.879L67.8513 76.0187C71.1588 74.5943 74.9377 74.6012 78.2393 76.0375L85.9318 79.3832C89.9165 81.1165 94.5437 80.7495 98.1824 78.4113L167.393 33.9393C169.916 32.3185 172.954 31.6219 175.962 31.975L205.031 35.389C208 35.7378 211.002 35.0627 213.507 33.4828L265.107 0.942383" stroke="#1DD75B" stroke-width="0.624433" stroke-linecap="round"/>
</svg>
