<svg width="594" height="241" viewBox="0 0 594 241" fill="none" xmlns="http://www.w3.org/2000/svg">
<path d="M149.8 95.0731L0.92334 1.27368V240.838H593.287V213.656L477.335 139.049C470.485 134.641 462.007 133.32 454.08 135.427L391.012 152.184C384.907 153.806 378.419 153.408 372.573 151.053L217.299 88.4939C209.792 85.4692 201.311 85.7023 193.992 89.1345L177.695 96.7768C168.73 100.981 158.152 100.335 149.8 95.0731Z" fill="#DE3B40" fill-opacity="0.1"/>
<path d="M0.92334 1.23315L149.8 95.0326C158.152 100.295 168.73 100.941 177.695 96.7363L193.992 89.094C201.311 85.6618 209.792 85.4287 217.299 88.4533L372.573 151.012C378.419 153.367 384.907 153.765 391.012 152.144L454.08 135.386C462.007 133.28 470.485 134.6 477.335 139.008L593.287 213.616" stroke="#DE3B40" stroke-width="1.40287" stroke-linecap="round"/>
</svg>
