<svg width="16" height="16" viewBox="0 0 16 16" fill="none" xmlns="http://www.w3.org/2000/svg">
<path d="M9.14258 14.2857L11.9997 14.2857C12.9466 14.2857 13.714 13.5183 13.714 12.5715V10.8572" stroke="#171A1F" stroke-width="1.37143" stroke-miterlimit="10" stroke-linecap="square"/>
<path d="M5.14328 8L2.28613 8L2.28613 10.8571C2.28613 11.4886 2.79756 12 3.42899 12L5.14328 12L5.14328 8Z" stroke="#171A1F" stroke-width="1.37143" stroke-miterlimit="10" stroke-linecap="square"/>
<path d="M13.7146 8L10.8574 8L10.8574 12H12.5717C13.2031 12 13.7146 11.4886 13.7146 10.8571L13.7146 8Z" stroke="#171A1F" stroke-width="1.37143" stroke-miterlimit="10" stroke-linecap="square"/>
<path d="M13.7147 8.00007V7.42864C13.7147 4.27264 11.1564 1.71436 8.00042 1.71436C4.84442 1.71436 2.28613 4.27264 2.28613 7.42864L2.28613 8.00007" stroke="#171A1F" stroke-width="1.37143" stroke-miterlimit="10" stroke-linecap="square"/>
</svg>
