<svg width="48" height="48" viewBox="0 0 48 48" fill="none" xmlns="http://www.w3.org/2000/svg">
<g clip-path="url(#clip0_1_691)">
<path d="M46.6 -1H1.4C0.0745167 -1 -1 0.0745167 -1 1.4V46.6C-1 47.9255 0.0745167 49 1.4 49H46.6C47.9255 49 49 47.9255 49 46.6V1.4C49 0.0745167 47.9255 -1 46.6 -1Z" fill="#6D31ED"/>
<path d="M39.0199 26.7083C39.0199 24.7987 38.0753 23.117 36.6326 22.0937C36.5775 14.8595 30.697 8.98999 23.4702 8.98999C16.2422 8.98999 10.3609 14.8595 10.3069 22.0937C8.86452 23.117 7.91992 24.7987 7.91992 26.7083C7.91992 29.7623 10.3364 32.2376 13.3547 32.3567C13.3547 32.798 13.7119 33.1571 14.1529 33.1571H16.5229C16.9638 33.1571 17.3223 32.798 17.3223 32.3567V21.0587C17.3223 20.6158 16.9638 20.2584 16.5221 20.2584H14.154C13.7119 20.2584 13.3547 20.6158 13.3547 21.0587C13.0571 21.0711 12.7713 21.1217 12.4872 21.177C13.0002 15.5523 17.728 11.1293 23.4705 11.1293C29.2121 11.1293 33.9399 15.5526 34.4529 21.177C34.1688 21.1217 33.8827 21.0711 33.5851 21.0587C33.5851 20.6158 33.2279 20.2584 32.7858 20.2584H30.4177C29.976 20.2584 29.6175 20.6158 29.6175 21.0587V32.3567C29.6175 32.798 29.9757 33.1571 30.4166 33.1571H32.7867C33.2276 33.1571 33.5849 32.798 33.5849 32.3567C34.1865 32.3322 34.7643 32.2119 35.3048 32.0137C34.8932 33.5868 33.5041 36.5112 28.9199 37.123V37.0515C28.9199 36.4065 28.3981 35.8833 27.7548 35.8833H24.6341C23.9916 35.8833 23.4699 36.4065 23.4699 37.0515V38.5218C23.4699 39.1677 23.9916 39.69 24.6341 39.69H27.7548C28.3981 39.69 28.9199 39.1677 28.9199 38.5218V38.1294C35.0196 37.3765 36.2058 32.8172 36.4215 31.4564C37.9821 30.4511 39.0199 28.7065 39.0199 26.7083Z" fill="#323743"/>
<path d="M20.0596 29.552C23.0096 30.902 24.7096 30.802 27.4596 29.552" stroke="#323743" stroke-width="1.6" stroke-linecap="round"/>
</g>
<defs>
<clipPath id="clip0_1_691">
<rect width="48" height="48" fill="white"/>
</clipPath>
</defs>
</svg>
