<svg width="44" height="44" viewBox="0 0 44 44" fill="none" xmlns="http://www.w3.org/2000/svg">
<path d="M21.9997 17.6998L34.9653 36.5H42L21.9997 7.5L2 36.5H9.0347L21.9997 17.6998Z" fill="#BDC1CA"/>
<path fill-rule="evenodd" clip-rule="evenodd" d="M18.784 38.2471C18.7849 38.246 18.7857 38.245 16.6395 36.4747C14.4933 34.7044 14.4942 34.7033 14.4952 34.7022L14.4971 34.6998L14.5014 34.6946C14.5044 34.6909 14.5077 34.6869 14.5114 34.6825C14.5187 34.6737 14.5273 34.6634 14.5372 34.6517C14.5569 34.6283 14.5819 34.5992 14.6118 34.5649C14.6716 34.4965 14.752 34.4073 14.8517 34.302C15.0504 34.0924 15.3308 33.8142 15.6847 33.5086C16.3782 32.9096 17.4269 32.1415 18.7595 31.6138C20.1147 31.077 21.8149 30.7717 23.6952 31.208C25.5794 31.6452 27.3749 32.7645 29.0229 34.6107L24.8905 38.3387C23.8437 37.166 23.0022 36.7758 22.4467 36.6469C21.8872 36.5171 21.3449 36.5892 20.7946 36.8072C20.2215 37.0341 19.7015 37.3982 19.3027 37.7426C19.1103 37.9087 18.9637 38.0551 18.8719 38.1521C18.8263 38.2001 18.7955 38.2347 18.7806 38.2518C18.7731 38.2603 18.7697 38.2643 18.7705 38.2634C18.7705 38.2634 18.7723 38.2612 18.7749 38.2581L18.7795 38.2526L18.7824 38.249L18.784 38.2471Z" fill="#9095A1"/>
</svg>
