<svg width="48" height="48" viewBox="0 0 48 48" fill="none" xmlns="http://www.w3.org/2000/svg">
<path d="M5.92357 19.4808C3.91646 15.0744 6.37204 9.9236 11.0592 8.70865L23.4571 5.49495C18.5398 7.12702 16.124 12.6633 18.2717 17.3782L24.9962 32.1413C25.7316 33.7558 25.019 35.6607 23.4045 36.3961L17.3103 39.172C16.2046 39.6757 14.9 39.1876 14.3963 38.0818L5.92357 19.4808Z" fill="#DEE1E6"/>
<path d="M42.0763 28.0835C44.0834 32.4899 41.6278 37.6406 36.9407 38.8556L24.5427 42.0693C29.46 40.4372 31.8758 34.901 29.7282 30.186L23.0036 15.4229C22.2683 13.8085 22.9809 11.9035 24.5954 11.1681L30.6895 8.39224C31.7952 7.88861 33.0999 8.37668 33.6035 9.4824L42.0763 28.0835Z" fill="#BDC1CA"/>
</svg>
