<svg width="230" height="131" viewBox="0 0 230 131" fill="none" xmlns="http://www.w3.org/2000/svg">
<g clip-path="url(#clip0_1_685)">
<path fill-rule="evenodd" clip-rule="evenodd" d="M230.222 0.190674C224.144 51.338 184.796 92.2801 134.428 100.768C134.15 103.789 133.615 110.248 133.654 114.819C133.707 121.083 134.9 130.813 134.9 130.813C134.9 130.813 119.134 120.202 108.79 113.783C99.3923 107.952 85.4119 99.9583 80.5155 97.1749C37.5227 83.8091 5.24586 46.1132 -0.211014 0.190674H230.222ZM137.213 40.7278C135.693 37.877 132.149 36.7985 129.299 38.3189C122.159 42.1266 118.034 43.3981 114.557 43.3699C111.127 43.3419 107.425 42.0444 101.104 38.4093C98.303 36.7988 94.7263 37.7637 93.1164 40.5646C91.5053 43.3654 92.4706 46.9415 95.2715 48.552C101.974 52.4061 107.878 55.0159 114.461 55.0694C120.996 55.1225 127.291 52.6495 134.804 48.6425C137.655 47.1221 138.734 43.5785 137.213 40.7278Z" fill="#6D31ED" fill-opacity="0.8"/>
</g>
<defs>
<clipPath id="clip0_1_685">
<rect width="230" height="131" fill="white"/>
</clipPath>
</defs>
</svg>
