<svg width="42" height="48" viewBox="0 0 42 48" fill="none" xmlns="http://www.w3.org/2000/svg">
<g clip-path="url(#clip0_1_2886)">
<path fill-rule="evenodd" clip-rule="evenodd" d="M17.2009 41.7186C6.98341 40.0938 -0.800049 31.7062 -0.800049 21.6032C-0.800049 10.3365 8.87949 1.20312 20.8198 1.20312C32.7602 1.20312 42.4396 10.3365 42.4396 21.6032C42.4396 30.7583 36.0483 38.5048 27.2461 41.0869C26.3337 41.5761 23.7289 42.9814 21.9779 44.0066C20.0505 45.1353 17.1128 47.0008 17.1128 47.0008C17.1128 47.0008 17.3351 45.2902 17.3451 44.1889C17.3524 43.3852 17.2527 42.2497 17.2009 41.7186Z" fill="#6D31ED"/>
<path d="M35.5672 24.7911C35.5672 23.0748 34.668 21.5633 33.2946 20.6436C33.2421 14.1414 27.6438 8.86597 20.764 8.86597C13.883 8.86597 8.28406 14.1414 8.23259 20.6436C6.85945 21.5633 5.96021 23.0748 5.96021 24.7911C5.96021 27.536 8.26074 29.7608 11.1341 29.868C11.1341 30.2646 11.4742 30.5873 11.8939 30.5873H14.1503C14.57 30.5873 14.9112 30.2646 14.9112 29.868V19.7132C14.9112 19.3152 14.57 18.9939 14.1495 18.9939H11.895C11.4742 18.9939 11.1341 19.3152 11.1341 19.7132C10.8508 19.7245 10.5787 19.77 10.3083 19.8196C10.7966 14.7641 15.2975 10.7888 20.7643 10.7888C26.2303 10.7888 30.7311 14.7645 31.2195 19.8196C30.9491 19.77 30.6766 19.7245 30.3934 19.7132C30.3934 19.3152 30.0534 18.9939 29.6324 18.9939H27.3781C26.9576 18.9939 26.6162 19.3152 26.6162 19.7132V29.868C26.6162 30.2646 26.9571 30.5873 27.377 30.5873H29.6333C30.0529 30.5873 30.3932 30.2646 30.3932 29.868C30.9659 29.8458 31.5159 29.7378 32.0306 29.5597C31.6387 30.9734 30.3163 33.6019 25.9521 34.1519V34.0875C25.9521 33.5079 25.4553 33.0376 24.843 33.0376H21.872C21.2603 33.0376 20.7637 33.5079 20.7637 34.0875V35.4091C20.7637 35.9896 21.2603 36.459 21.872 36.459H24.843C25.4553 36.459 25.9521 35.9896 25.9521 35.4091V35.0564C31.759 34.3796 32.8882 30.2819 33.0936 29.0588C34.5793 28.1551 35.5672 26.5871 35.5672 24.7911Z" fill="#424856"/>
<path d="M17.6086 27.1294C20.3388 28.5033 21.4914 28.4461 23.9184 27.1294" stroke="#424856" stroke-width="2.11761" stroke-linecap="round"/>
</g>
<defs>
<clipPath id="clip0_1_2886">
<rect width="42" height="47" fill="white" transform="translate(0 0.5)"/>
</clipPath>
</defs>
</svg>
