<svg width="633" height="728" viewBox="0 0 633 728" fill="none" xmlns="http://www.w3.org/2000/svg">
<g clip-path="url(#clip0_1_490)">
<path d="M-545.897 27.54H635.277" stroke="#DEE1E6" stroke-width="1.0022"/>
<path d="M-545.897 59.58H635.277" stroke="#DEE1E6" stroke-width="1.0022"/>
<path d="M-545.897 91.63H635.277" stroke="#DEE1E6" stroke-width="1.0022"/>
<path d="M-545.897 123.67H635.277" stroke="#DEE1E6" stroke-width="1.0022"/>
<path d="M-545.897 155.71H635.277" stroke="#DEE1E6" stroke-width="1.0022"/>
<path d="M-545.897 187.76H635.277" stroke="#DEE1E6" stroke-width="1.0022"/>
<path d="M-545.897 219.8H635.277" stroke="#DEE1E6" stroke-width="1.0022"/>
<path d="M-545.897 251.85H635.277" stroke="#DEE1E6" stroke-width="1.0022"/>
<path d="M-545.897 283.89H635.277" stroke="#DEE1E6" stroke-width="1.0022"/>
<path d="M-545.897 315.93H635.277" stroke="#DEE1E6" stroke-width="1.0022"/>
<path d="M-545.897 347.98H635.277" stroke="#DEE1E6" stroke-width="1.0022"/>
<path d="M-545.897 380.02H635.277" stroke="#DEE1E6" stroke-width="1.0022"/>
<path d="M-545.897 412.07H635.277" stroke="#DEE1E6" stroke-width="1.0022"/>
<path d="M-545.897 444.11H635.277" stroke="#DEE1E6" stroke-width="1.0022"/>
<path d="M-545.897 476.15H635.277" stroke="#DEE1E6" stroke-width="1.0022"/>
<path d="M-545.897 508.2H635.277" stroke="#DEE1E6" stroke-width="1.0022"/>
<path d="M-545.897 540.24H635.277" stroke="#DEE1E6" stroke-width="1.0022"/>
<path d="M-545.897 572.29H635.277" stroke="#DEE1E6" stroke-width="1.0022"/>
<path d="M-545.897 604.33H635.277" stroke="#DEE1E6" stroke-width="1.0022"/>
<path d="M-545.897 636.37H635.277" stroke="#DEE1E6" stroke-width="1.0022"/>
<path d="M-545.897 668.42H635.277" stroke="#DEE1E6" stroke-width="1.0022"/>
<path d="M-545.897 700.46H635.277" stroke="#DEE1E6" stroke-width="1.0022"/>
<path d="M45.1914 0.5V727.5" stroke="#DEE1E6" stroke-width="1.0022"/>
<path d="M168.343 0.5V727.5" stroke="#DEE1E6" stroke-width="1.0022"/>
<path d="M291.475 0.5V727.5" stroke="#DEE1E6" stroke-width="1.0022"/>
<path d="M414.625 0.5V727.5" stroke="#DEE1E6" stroke-width="1.0022"/>
<path d="M537.775 0.5V727.5" stroke="#DEE1E6" stroke-width="1.0022"/>
</g>
<defs>
<clipPath id="clip0_1_490">
<rect width="633" height="728" fill="white"/>
</clipPath>
</defs>
</svg>
