<svg width="1176" height="728" viewBox="0 0 1176 728" fill="none" xmlns="http://www.w3.org/2000/svg">
<g clip-path="url(#clip0_1_106)">
<path d="M-1 27.54H1175" stroke="#DEE1E6"/>
<path d="M-1 59.5801H1175" stroke="#DEE1E6"/>
<path d="M-1 91.6299H1175" stroke="#DEE1E6"/>
<path d="M-1 123.67H1175" stroke="#DEE1E6"/>
<path d="M-1 155.71H1175" stroke="#DEE1E6"/>
<path d="M-1 187.76H1175" stroke="#DEE1E6"/>
<path d="M-1 219.8H1175" stroke="#DEE1E6"/>
<path d="M-1 251.85H1175" stroke="#DEE1E6"/>
<path d="M-1 283.89H1175" stroke="#DEE1E6"/>
<path d="M-1 315.93H1175" stroke="#DEE1E6"/>
<path d="M-1 347.98H1175" stroke="#DEE1E6"/>
<path d="M-1 380.02H1175" stroke="#DEE1E6"/>
<path d="M-1 412.07H1175" stroke="#DEE1E6"/>
<path d="M-1 444.11H1175" stroke="#DEE1E6"/>
<path d="M-1 476.15H1175" stroke="#DEE1E6"/>
<path d="M-1 508.2H1175" stroke="#DEE1E6"/>
<path d="M-1 540.24H1175" stroke="#DEE1E6"/>
<path d="M-1 572.29H1175" stroke="#DEE1E6"/>
<path d="M-1 604.33H1175" stroke="#DEE1E6"/>
<path d="M-1 636.37H1175" stroke="#DEE1E6"/>
<path d="M-1 668.42H1175" stroke="#DEE1E6"/>
<path d="M-1 700.46H1175" stroke="#DEE1E6"/>
<path d="M95.5 0.5V727.5" stroke="#DEE1E6"/>
<path d="M218.5 0.5V727.5" stroke="#DEE1E6"/>
<path d="M341.5 0.5V727.5" stroke="#DEE1E6"/>
<path d="M464.5 0.5V727.5" stroke="#DEE1E6"/>
<path d="M587.5 0.5V727.5" stroke="#DEE1E6"/>
<path d="M710.5 0.5V727.5" stroke="#DEE1E6"/>
<path d="M833.5 0.5V727.5" stroke="#DEE1E6"/>
<path d="M956.5 0.5V727.5" stroke="#DEE1E6"/>
<path d="M1079.5 0.5V727.5" stroke="#DEE1E6"/>
</g>
<defs>
<clipPath id="clip0_1_106">
<rect width="1176" height="728" fill="white"/>
</clipPath>
</defs>
</svg>
