<svg width="229" height="131" viewBox="0 0 229 131" fill="none" xmlns="http://www.w3.org/2000/svg">
<g clip-path="url(#clip0_1_680)">
<path fill-rule="evenodd" clip-rule="evenodd" d="M0.263672 0.190674C6.28942 51.338 45.3007 92.2801 95.239 100.768C95.5145 103.789 96.0451 110.248 96.0062 114.819C95.953 121.083 94.7704 130.813 94.7704 130.813C94.7704 130.813 110.402 120.202 120.658 113.783C129.975 107.952 143.836 99.9583 148.69 97.1749C191.316 83.8091 223.317 46.1132 228.727 0.190674H0.263672ZM92.4772 40.7278C93.9846 37.877 97.4978 36.7985 100.324 38.3189C107.403 42.1266 111.492 43.3981 114.94 43.3699C118.34 43.3419 122.01 42.0444 128.278 38.4093C131.055 36.7988 134.601 37.7637 136.197 40.5646C137.794 43.3654 136.837 46.9415 134.06 48.552C127.415 52.4061 121.561 55.0159 115.035 55.0694C108.555 55.1225 102.314 52.6495 94.8654 48.6425C92.039 47.1221 90.9698 43.5785 92.4772 40.7278Z" fill="#6D31ED" fill-opacity="0.3"/>
</g>
<defs>
<clipPath id="clip0_1_680">
<rect width="229" height="131" fill="white"/>
</clipPath>
</defs>
</svg>
