<svg width="144" height="36" viewBox="0 0 144 36" fill="none" xmlns="http://www.w3.org/2000/svg">
<path fill-rule="evenodd" clip-rule="evenodd" d="M10.9328 32.4037C4.83975 31.3768 0.198242 26.0759 0.198242 19.691C0.198242 12.5705 5.97044 6.79834 13.0908 6.79834C20.2112 6.79834 25.9833 12.5705 25.9833 19.691C25.9833 25.4769 22.172 30.3725 16.923 32.0044C16.3789 32.3136 14.8256 33.2017 13.7814 33.8496C12.6321 34.563 10.8802 35.7419 10.8802 35.7419C10.8802 35.7419 11.0128 34.6608 11.0187 33.9648C11.0231 33.4569 10.9636 32.7393 10.9328 32.4037Z" fill="#6D31ED"/>
<path d="M21.9075 21.7056C21.9075 20.6209 21.3713 19.6657 20.5523 19.0844C20.5209 14.9751 17.1825 11.6411 13.0799 11.6411C8.97657 11.6411 5.63774 14.9751 5.60705 19.0844C4.7882 19.6657 4.25195 20.6209 4.25195 21.7056C4.25195 23.4403 5.62383 24.8464 7.33728 24.9142C7.33728 25.1648 7.54012 25.3688 7.79042 25.3688H9.13594C9.38624 25.3688 9.58971 25.1648 9.58971 24.9142V18.4964C9.58971 18.2449 9.38624 18.0418 9.13545 18.0418H7.79107C7.54012 18.0418 7.33728 18.2449 7.33728 18.4964C7.16833 18.5036 7.00611 18.5323 6.84483 18.5637C7.13605 15.3686 9.82003 12.8563 13.0801 12.8563C16.3396 12.8563 19.0236 15.3689 19.3148 18.5637C19.1536 18.5323 18.9911 18.5036 18.8222 18.4964C18.8222 18.2449 18.6194 18.0418 18.3684 18.0418H17.0241C16.7733 18.0418 16.5697 18.2449 16.5697 18.4964V24.9142C16.5697 25.1648 16.773 25.3688 17.0234 25.3688H18.3689C18.6192 25.3688 18.8221 25.1648 18.8221 24.9142C19.1636 24.9001 19.4916 24.8319 19.7985 24.7193C19.5648 25.6128 18.7762 27.2739 16.1737 27.6215V27.5808C16.1737 27.2145 15.8775 26.9173 15.5123 26.9173H13.7407C13.3759 26.9173 13.0797 27.2145 13.0797 27.5808V28.4161C13.0797 28.783 13.3759 29.0796 13.7407 29.0796H15.5123C15.8775 29.0796 16.1737 28.783 16.1737 28.4161V28.1931C19.6366 27.7654 20.31 25.1757 20.4324 24.4027C21.3184 23.8316 21.9075 22.8407 21.9075 21.7056Z" fill="#323743"/>
<path d="M11.1982 23.1804C12.8263 24.0487 13.5137 24.0125 14.961 23.1804" stroke="#323743" stroke-width="1.3" stroke-linecap="round"/>
<path d="M34.9578 26.7169C34.5245 26.7169 34.1953 26.6042 33.9698 26.379C33.7445 26.1362 33.6318 25.8069 33.6318 25.3909V14.9909C33.6318 14.5577 33.7445 14.2282 33.9698 14.0029C34.1953 13.7777 34.5073 13.6649 34.9058 13.6649C35.3218 13.6649 35.6338 13.7777 35.8418 14.0029C36.0673 14.2282 36.1798 14.5577 36.1798 14.9909V16.8889H35.9198C36.1973 15.8489 36.7085 15.0602 37.4538 14.5229C38.1993 13.9857 39.1525 13.6737 40.3138 13.5869C40.6258 13.5697 40.8685 13.6477 41.0418 13.8209C41.2325 13.9942 41.3365 14.2629 41.3538 14.6269C41.3885 14.9909 41.3105 15.2857 41.1198 15.5109C40.9293 15.7189 40.6345 15.8402 40.2358 15.8749L39.7418 15.9269C38.6153 16.0309 37.7573 16.3862 37.1678 16.9929C36.5785 17.5997 36.2838 18.4317 36.2838 19.4889V25.3909C36.2838 25.8069 36.1713 26.1362 35.9458 26.379C35.7378 26.6042 35.4085 26.7169 34.9578 26.7169ZM49.1073 26.7689C47.7207 26.7689 46.5247 26.5089 45.5193 25.989C44.5313 25.4517 43.76 24.6977 43.2053 23.7269C42.668 22.7389 42.3993 21.5689 42.3993 20.2169C42.3993 18.8997 42.668 17.7469 43.2053 16.7589C43.7427 15.7709 44.4793 14.9997 45.4153 14.4449C46.3513 13.8902 47.4173 13.6129 48.6133 13.6129C49.4973 13.6129 50.286 13.7602 50.9793 14.0549C51.6727 14.3322 52.262 14.7482 52.7473 15.3029C53.25 15.8402 53.6227 16.4989 53.8653 17.2789C54.1253 18.0589 54.2553 18.9342 54.2553 19.9049C54.2553 20.1997 54.1687 20.4249 53.9953 20.5809C53.822 20.7197 53.562 20.7889 53.2153 20.7889H44.4793V19.1769H52.4873L52.0453 19.5409C52.0453 18.6742 51.9153 17.9377 51.6553 17.3309C51.4127 16.7242 51.04 16.2649 50.5373 15.9529C50.052 15.6237 49.4453 15.4589 48.7173 15.4589C47.9027 15.4589 47.2093 15.6497 46.6373 16.0309C46.0827 16.4122 45.658 16.9409 45.3633 17.6169C45.0687 18.2929 44.9213 19.0817 44.9213 19.983V20.1389C44.9213 21.6642 45.2767 22.8169 45.9873 23.5969C46.7153 24.3597 47.764 24.7409 49.1333 24.7409C49.6533 24.7409 50.1993 24.6717 50.7713 24.5329C51.3607 24.3942 51.9153 24.1602 52.4353 23.8309C52.73 23.6577 52.99 23.5797 53.2153 23.5969C53.458 23.6142 53.6487 23.6922 53.7873 23.8309C53.9433 23.9697 54.0387 24.1429 54.0733 24.3509C54.108 24.5589 54.0733 24.7757 53.9693 25.0009C53.8653 25.209 53.6833 25.3997 53.4233 25.5729C52.834 25.9717 52.1493 26.2749 51.3693 26.4829C50.5893 26.6737 49.8353 26.7689 49.1073 26.7689ZM61.5642 26.7689C60.8016 26.7689 60.0129 26.6822 59.1982 26.5089C58.4009 26.3357 57.6642 26.0409 56.9882 25.6249C56.7629 25.4689 56.6069 25.2957 56.5202 25.1049C56.4336 24.9142 56.3989 24.7237 56.4162 24.5329C56.4509 24.3249 56.5289 24.1517 56.6502 24.0129C56.7889 23.8569 56.9536 23.7617 57.1442 23.7269C57.3522 23.6922 57.5689 23.7357 57.7942 23.8569C58.4702 24.2382 59.1202 24.5069 59.7442 24.6629C60.3682 24.8017 60.9836 24.8709 61.5902 24.8709C62.5089 24.8709 63.2022 24.7062 63.6702 24.3769C64.1382 24.0477 64.3722 23.6057 64.3722 23.0509C64.3722 22.6002 64.2162 22.2537 63.9042 22.0109C63.5922 21.7509 63.1242 21.5517 62.5002 21.4129L60.0302 20.9189C58.9556 20.6937 58.1409 20.2949 57.5862 19.7229C57.0316 19.1509 56.7542 18.4229 56.7542 17.5389C56.7542 16.7417 56.9709 16.0482 57.4042 15.4589C57.8376 14.8697 58.4442 14.4189 59.2242 14.1069C60.0042 13.7777 60.9056 13.6129 61.9282 13.6129C62.6909 13.6129 63.4102 13.7082 64.0862 13.8989C64.7622 14.0897 65.3862 14.3757 65.9582 14.7569C66.1836 14.8782 66.3309 15.0429 66.4002 15.2509C66.4696 15.4417 66.4782 15.6322 66.4262 15.8229C66.3916 16.0137 66.3049 16.1869 66.1662 16.3429C66.0276 16.4817 65.8542 16.5682 65.6462 16.6029C65.4556 16.6202 65.2389 16.5682 64.9962 16.4469C64.4762 16.1177 63.9562 15.8837 63.4362 15.7449C62.9336 15.6062 62.4309 15.5369 61.9282 15.5369C61.0096 15.5369 60.3162 15.7102 59.8482 16.0569C59.3976 16.3862 59.1722 16.8369 59.1722 17.4089C59.1722 17.8422 59.3109 18.1977 59.5882 18.4749C59.8656 18.7522 60.2989 18.9517 60.8882 19.0729L63.3582 19.5669C64.4849 19.7922 65.3342 20.1737 65.9062 20.7109C66.4956 21.2482 66.7902 21.9762 66.7902 22.8949C66.7902 24.0909 66.3136 25.0357 65.3602 25.729C64.4069 26.4222 63.1416 26.7689 61.5642 26.7689ZM71.0119 31.3969C70.5959 31.3969 70.2753 31.2842 70.0499 31.059C69.8246 30.8337 69.7119 30.5042 69.7119 30.0709V14.9909C69.7119 14.5577 69.8246 14.2282 70.0499 14.0029C70.2753 13.7777 70.5873 13.6649 70.9859 13.6649C71.4019 13.6649 71.7226 13.7777 71.9479 14.0029C72.1733 14.2282 72.2859 14.5577 72.2859 14.9909V17.2529L71.9999 16.7069C72.2773 15.7709 72.8233 15.0257 73.6379 14.4709C74.4526 13.8989 75.4146 13.6129 76.5239 13.6129C77.6506 13.6129 78.6299 13.8817 79.4619 14.4189C80.3113 14.9562 80.9613 15.7102 81.4119 16.6809C81.8799 17.6517 82.1139 18.8217 82.1139 20.1909C82.1139 21.5257 81.8799 22.6957 81.4119 23.7009C80.9613 24.6889 80.3199 25.4517 79.4879 25.989C78.6559 26.5089 77.6679 26.7689 76.5239 26.7689C75.4319 26.7689 74.4786 26.4917 73.6639 25.9369C72.8493 25.3822 72.3033 24.6457 72.0259 23.7269H72.3379V30.0709C72.3379 30.5042 72.2166 30.8337 71.9739 31.059C71.7486 31.2842 71.4279 31.3969 71.0119 31.3969ZM75.8739 24.7409C76.6019 24.7409 77.2346 24.5677 77.7719 24.2209C78.3093 23.8742 78.7253 23.3629 79.0199 22.6869C79.3146 22.0109 79.4619 21.1789 79.4619 20.1909C79.4619 18.7002 79.1326 17.5737 78.4739 16.8109C77.8326 16.0482 76.9659 15.6669 75.8739 15.6669C75.1633 15.6669 74.5306 15.8402 73.9759 16.1869C73.4386 16.5162 73.0226 17.0189 72.7279 17.6949C72.4333 18.3709 72.2859 19.2029 72.2859 20.1909C72.2859 21.6642 72.6153 22.7909 73.2739 23.5709C73.9326 24.3509 74.7993 24.7409 75.8739 24.7409ZM90.5852 26.7689C89.3027 26.7689 88.1932 26.5002 87.2572 25.9629C86.3386 25.4257 85.6192 24.6629 85.0992 23.6749C84.5792 22.6869 84.3192 21.5257 84.3192 20.1909C84.3192 19.1682 84.4666 18.2582 84.7612 17.4609C85.0559 16.6637 85.4719 15.9789 86.0092 15.4069C86.5639 14.8177 87.2227 14.3757 87.9852 14.0809C88.7652 13.7689 89.6319 13.6129 90.5852 13.6129C91.8507 13.6129 92.9426 13.8817 93.8612 14.4189C94.7972 14.9562 95.5252 15.7189 96.0452 16.7069C96.5652 17.6777 96.8252 18.8389 96.8252 20.1909C96.8252 21.1962 96.6779 22.1062 96.3832 22.9209C96.0886 23.7357 95.6639 24.4289 95.1092 25.0009C94.5719 25.5729 93.9132 26.0149 93.1332 26.3269C92.3707 26.6217 91.5212 26.7689 90.5852 26.7689ZM90.5852 24.7409C91.2959 24.7409 91.9199 24.5677 92.4572 24.2209C92.9946 23.8742 93.4107 23.3629 93.7052 22.6869C94.0172 22.0109 94.1732 21.1789 94.1732 20.1909C94.1732 18.7002 93.8439 17.5737 93.1852 16.8109C92.5267 16.0482 91.6599 15.6669 90.5852 15.6669C89.8572 15.6669 89.2246 15.8402 88.6872 16.1869C88.1499 16.5162 87.7252 17.0189 87.4132 17.6949C87.1187 18.3709 86.9712 19.2029 86.9712 20.1909C86.9712 21.6642 87.3007 22.7909 87.9592 23.5709C88.6179 24.3509 89.4932 24.7409 90.5852 24.7409ZM101.074 26.7169C100.658 26.7169 100.338 26.6042 100.112 26.379C99.8871 26.1362 99.7744 25.8069 99.7744 25.3909V14.9909C99.7744 14.5577 99.8871 14.2282 100.112 14.0029C100.338 13.7777 100.65 13.6649 101.048 13.6649C101.464 13.6649 101.776 13.7777 101.984 14.0029C102.21 14.2282 102.322 14.5577 102.322 14.9909V17.0189L102.036 16.5509C102.418 15.5802 103.016 14.8522 103.83 14.3669C104.645 13.8642 105.581 13.6129 106.638 13.6129C107.644 13.6129 108.476 13.8037 109.134 14.1849C109.81 14.5489 110.313 15.1122 110.642 15.8749C110.972 16.6202 111.136 17.5649 111.136 18.7089V25.3909C111.136 25.8069 111.024 26.1362 110.798 26.379C110.573 26.6042 110.252 26.7169 109.836 26.7169C109.403 26.7169 109.074 26.6042 108.848 26.379C108.623 26.1362 108.51 25.8069 108.51 25.3909V18.8649C108.51 17.7729 108.294 16.9757 107.86 16.4729C107.444 15.9702 106.786 15.7189 105.884 15.7189C104.827 15.7189 103.978 16.0482 103.336 16.7069C102.712 17.3657 102.4 18.2497 102.4 19.3589V25.3909C102.4 26.275 101.958 26.7169 101.074 26.7169ZM119.591 26.7689C118.482 26.7689 117.502 26.5089 116.653 25.989C115.821 25.4517 115.171 24.6889 114.703 23.7009C114.235 22.6957 114.001 21.5257 114.001 20.1909C114.001 18.8217 114.235 17.6517 114.703 16.6809C115.171 15.7102 115.821 14.9562 116.653 14.4189C117.502 13.8817 118.482 13.6129 119.591 13.6129C120.7 13.6129 121.654 13.8902 122.451 14.4449C123.266 14.9822 123.812 15.7102 124.089 16.6289H123.803V9.34895C123.803 8.91562 123.916 8.58628 124.141 8.36095C124.366 8.13562 124.687 8.02295 125.103 8.02295C125.519 8.02295 125.84 8.13562 126.065 8.36095C126.308 8.58628 126.429 8.91562 126.429 9.34895V25.3909C126.429 25.8069 126.316 26.1362 126.091 26.379C125.866 26.6042 125.545 26.7169 125.129 26.7169C124.713 26.7169 124.392 26.6042 124.167 26.379C123.942 26.1362 123.829 25.8069 123.829 25.3909V23.103L124.115 23.6749C123.838 24.6109 123.292 25.3649 122.477 25.9369C121.68 26.4917 120.718 26.7689 119.591 26.7689ZM120.267 24.7409C120.978 24.7409 121.602 24.5677 122.139 24.2209C122.676 23.8742 123.092 23.3629 123.387 22.6869C123.699 22.0109 123.855 21.1789 123.855 20.1909C123.855 18.7002 123.526 17.5737 122.867 16.8109C122.208 16.0482 121.342 15.6669 120.267 15.6669C119.539 15.6669 118.906 15.8402 118.369 16.1869C117.832 16.5162 117.407 17.0189 117.095 17.6949C116.8 18.3709 116.653 19.2029 116.653 20.1909C116.653 21.6642 116.982 22.7909 117.641 23.5709C118.3 24.3509 119.175 24.7409 120.267 24.7409ZM135.628 26.7689C134.346 26.7689 133.236 26.5002 132.3 25.9629C131.382 25.4257 130.662 24.6629 130.142 23.6749C129.622 22.6869 129.362 21.5257 129.362 20.1909C129.362 19.1682 129.51 18.2582 129.804 17.4609C130.099 16.6637 130.515 15.9789 131.052 15.4069C131.607 14.8177 132.266 14.3757 133.028 14.0809C133.808 13.7689 134.675 13.6129 135.628 13.6129C136.894 13.6129 137.986 13.8817 138.904 14.4189C139.84 14.9562 140.568 15.7189 141.088 16.7069C141.608 17.6777 141.868 18.8389 141.868 20.1909C141.868 21.1962 141.721 22.1062 141.426 22.9209C141.132 23.7357 140.707 24.4289 140.152 25.0009C139.615 25.5729 138.956 26.0149 138.176 26.3269C137.414 26.6217 136.564 26.7689 135.628 26.7689ZM135.628 24.7409C136.339 24.7409 136.963 24.5677 137.5 24.2209C138.038 23.8742 138.454 23.3629 138.748 22.6869C139.06 22.0109 139.216 21.1789 139.216 20.1909C139.216 18.7002 138.887 17.5737 138.228 16.8109C137.57 16.0482 136.703 15.6669 135.628 15.6669C134.9 15.6669 134.268 15.8402 133.73 16.1869C133.193 16.5162 132.768 17.0189 132.456 17.6949C132.162 18.3709 132.014 19.2029 132.014 20.1909C132.014 21.6642 132.344 22.7909 133.002 23.5709C133.661 24.3509 134.536 24.7409 135.628 24.7409Z" fill="#323743"/>
</svg>
