<svg width="44" height="44" viewBox="0 0 44 44" fill="none" xmlns="http://www.w3.org/2000/svg">
<path fill-rule="evenodd" clip-rule="evenodd" d="M25.0552 3.44279C24.0689 3.283 23.057 3.19995 22.0256 3.19995C11.6426 3.19995 3.22559 11.617 3.22559 21.9999C3.22559 32.3829 11.6426 40.7999 22.0256 40.7999C23.8755 40.7999 25.663 40.5327 27.3515 40.0349C18.409 38.5861 11.5812 30.8293 11.5812 21.4777C11.5812 12.9446 17.2661 5.73939 25.0552 3.44279Z" fill="#424856"/>
<path fill-rule="evenodd" clip-rule="evenodd" d="M40.764 21.9999C40.764 11.617 32.347 3.19995 21.964 3.19995C21.0522 3.19995 20.1555 3.26487 19.2783 3.39034C26.1114 4.69354 31.364 12.5289 31.364 21.9999C31.364 31.471 26.1114 39.3064 19.2783 40.6095C20.1555 40.735 21.0522 40.7999 21.964 40.7999C32.347 40.7999 40.764 32.3829 40.764 21.9999Z" fill="#6F7787"/>
<path fill-rule="evenodd" clip-rule="evenodd" d="M3.72728 17.5295C5.72207 25.7702 13.1464 31.8906 22.0002 31.8906C30.854 31.8906 38.2783 25.7702 40.2731 17.5295C40.6176 18.9528 40.8002 20.4393 40.8002 21.9684C40.8002 32.3514 32.3832 40.7684 22.0002 40.7684C11.6172 40.7684 3.2002 32.3514 3.2002 21.9684C3.2002 20.4393 3.38276 18.9528 3.72728 17.5295Z" fill="#DEE1E6"/>
</svg>
