<svg width="40" height="40" viewBox="0 0 40 40" fill="none" xmlns="http://www.w3.org/2000/svg">
<path d="M35.7 13.6C35.7 13.6 35.4 11.4 34.4 10.4C33.2 9.09995 31.8 9.09995 31.2 8.99995C26.7 8.69995 20 8.69995 20 8.69995C20 8.69995 13.3 8.69995 8.8 8.99995C8.2 9.09995 6.8 9.09995 5.6 10.4C4.6 11.4 4.3 13.6 4.3 13.6C4.3 13.6 4 16.2 4 18.8L4 21.2C4 23.8 4.3 26.4 4.3 26.4C4.3 26.4 4.6 28.6 5.6 29.6C6.8 30.9 8.4 30.7999 9.1 31C11.7 31.2 20 31.2999 20 31.2999C20 31.2999 26.7 31.2999 31.2 31C31.8 30.9 33.2 30.9 34.4 29.6C35.4 28.6 35.7 26.4 35.7 26.4C35.7 26.4 36 23.8 36 21.2V18.8C36 16.2 35.7 13.6 35.7 13.6ZM16.7 24.2L16.7 15.2L25.3 19.7L16.7 24.2Z" fill="#424856"/>
</svg>
