<svg width="40" height="40" viewBox="0 0 40 40" fill="none" xmlns="http://www.w3.org/2000/svg">
<path d="M33 5L7 5C6.46957 5 5.96086 5.21071 5.58579 5.58579C5.21071 5.96086 5 6.46957 5 7L5 33C5 33.5304 5.21071 34.0391 5.58579 34.4142C5.96086 34.7893 6.46957 35 7 35L33 35C33.5304 35 34.0391 34.7893 34.4142 34.4142C34.7893 34.0391 35 33.5304 35 33L35 7C35 6.46957 34.7893 5.96086 34.4142 5.58579C34.0391 5.21071 33.5304 5 33 5ZM13.887 30.594L9.374 30.594L9.374 16.25H13.887L13.887 30.594ZM11.63 14.281C11.1112 14.2794 10.6044 14.1241 10.1738 13.8347C9.74319 13.5453 9.40798 13.1348 9.21053 12.655C9.01307 12.1752 8.96223 11.6477 9.06442 11.139C9.16661 10.6303 9.41724 10.1633 9.78467 9.79703C10.1521 9.43072 10.6198 9.18151 11.1288 9.08087C11.6378 8.98023 12.1652 9.03268 12.6444 9.23159C13.1236 9.4305 13.5331 9.76696 13.8212 10.1985C14.1092 10.63 14.263 11.1372 14.263 11.656C14.2631 12.0014 14.1951 12.3435 14.0627 12.6626C13.9303 12.9816 13.7363 13.2714 13.4916 13.5153C13.247 13.7592 12.9566 13.9524 12.6372 14.0838C12.3177 14.2152 11.9754 14.2822 11.63 14.281ZM30.621 30.594L26.2 30.594L26.2 23.656C26.2 21.969 26.2 19.906 23.85 19.906C21.5 19.906 21.217 21.688 21.217 23.562L21.217 30.688H16.8L16.8 16.25H20.936V18.219H21.03C21.4566 17.4815 22.0756 16.8738 22.8208 16.4609C23.5661 16.0481 24.4095 15.8455 25.261 15.875C29.774 15.875 30.62 18.875 30.62 22.719L30.621 30.594Z" fill="#424856"/>
</svg>
