<svg width="40" height="40" viewBox="0 0 40 40" fill="none" xmlns="http://www.w3.org/2000/svg">
<path d="M36 19.9999C35.9995 16.9424 35.123 13.9489 33.4741 11.3741C31.8252 8.79919 29.4731 6.75068 26.6962 5.47106C23.9192 4.19143 20.8338 3.73428 17.8051 4.15371C14.7765 4.57315 11.9314 5.85161 9.60674 7.83774C7.28208 9.82388 5.57519 12.4345 4.68814 15.3606C3.80109 18.2867 3.77102 21.4056 4.6015 24.3483C5.43197 27.2909 7.08822 29.9339 9.37415 31.9645C11.6601 33.9951 14.48 35.3282 17.5 35.8059V24.6249H13.438L13.438 19.9999L17.5 19.9999V16.4749C17.5 12.4649 19.889 10.2499 23.543 10.2499C24.743 10.2666 25.9402 10.3709 27.125 10.5619L27.125 14.4999H25.107C24.7631 14.4543 24.4134 14.4866 24.0837 14.5944C23.754 14.7023 23.4528 14.883 23.2024 15.1231C22.952 15.3632 22.7589 15.6566 22.6373 15.9815C22.5157 16.3063 22.4688 16.6544 22.5 16.9999V19.9999H26.938L26.228 24.6249L22.5 24.6249L22.5 35.8059C26.2638 35.2105 29.6915 33.2914 32.1663 30.3938C34.6412 27.4962 36.0006 23.8105 36 19.9999Z" fill="#424856"/>
</svg>
