<svg width="40" height="40" viewBox="0 0 40 40" fill="none" xmlns="http://www.w3.org/2000/svg">
<path d="M36.0004 10.1C34.8004 10.6 33.6004 11 32.2004 11.1C33.6004 10.3 34.6004 9 35.1004 7.5C33.8004 8.3 32.4004 8.8 30.9004 9.1C29.7004 7.8 28.0004 7 26.2004 7C22.6004 7 19.6004 9.9 19.6004 13.6C19.6004 14.1 19.7004 14.6 19.8004 15.1C14.3004 14.8 9.50039 12.2 6.20039 8.2C5.60039 9.2 5.30039 10.3 5.30039 11.5C5.30039 13.8 6.50039 15.8 8.20039 17C7.10039 17 6.10039 16.7 5.20039 16.2V16.3C5.20039 19.5 7.50039 22.1 10.5004 22.7C9.90039 22.8 9.40039 22.9 8.80039 22.9C8.40039 22.9 8.00039 22.9 7.60039 22.8C8.40039 25.4 10.9004 27.3 13.7004 27.4C11.5004 29.2 8.60039 30.2 5.50039 30.2C5.00039 30.2 4.40039 30.2 3.90039 30.1C6.90039 31.9 10.4004 33 14.1004 33C26.2004 33 32.8004 23 32.8004 14.3C32.8004 14 32.8004 13.7 32.8004 13.5C34.0004 12.5 35.1004 11.4 36.0004 10.1Z" fill="#424856"/>
</svg>
