<svg width="48" height="48" viewBox="0 0 48 48" fill="none" xmlns="http://www.w3.org/2000/svg">
<path d="M23.9997 18.2069C21.5445 18.2069 19.1444 18.935 17.103 20.299C15.0616 21.6631 13.4705 23.6018 12.5309 25.8701C11.5913 28.1385 11.3455 30.6345 11.8245 33.0425C12.3035 35.4506 13.4858 37.6625 15.2219 39.3986C16.958 41.1347 19.1699 42.317 21.5779 42.796C23.986 43.275 26.482 43.0291 28.7503 42.0896C31.0186 41.15 32.9574 39.5589 34.3214 37.5174C35.6855 35.476 36.4135 33.0759 36.4135 30.6207C36.4098 27.3295 35.1007 24.1742 32.7735 21.8469C30.4463 19.5197 27.2909 18.2106 23.9997 18.2069ZM27.8894 36.6091L23.9997 34.5633L20.1101 36.6091L20.8549 32.2759L17.7101 29.2072L22.0599 28.5749L23.9997 24.6323L25.9462 28.5749L30.296 29.2072L27.1446 32.2759L27.8894 36.6091Z" fill="#424856"/>
<path d="M22.1004 16.6957L16.4687 5.42318C16.3996 5.28498 16.2933 5.16887 16.1616 5.08798C16.03 5.0071 15.8783 4.96468 15.7239 4.96553L5.79282 4.96553C5.65173 4.96546 5.51297 5.00146 5.38972 5.07012C5.26647 5.13877 5.16281 5.23779 5.0886 5.35778C5.01438 5.47776 4.97207 5.61473 4.96569 5.75567C4.95931 5.89661 4.98906 6.03684 5.05213 6.16304L12.9448 21.9476C15.1982 19.0737 18.482 17.19 22.1004 16.6957Z" fill="#424856"/>
<path d="M42.911 5.35863C42.8369 5.23848 42.7333 5.13928 42.61 5.07048C42.4868 5.00167 42.3479 4.96554 42.2068 4.96553L32.2757 4.96553C32.1212 4.96468 31.9696 5.0071 31.838 5.08798C31.7063 5.16887 31.6 5.28498 31.5309 5.42318L25.9033 16.6957C29.5202 17.191 32.8024 19.0746 35.0548 21.9476L42.9516 6.16304C43.0139 6.03661 43.0429 5.89635 43.0358 5.75557C43.0287 5.61479 42.9858 5.47816 42.911 5.35863Z" fill="#424856"/>
</svg>
