<svg width="20" height="20" viewBox="0 0 20 20" fill="none" xmlns="http://www.w3.org/2000/svg">
<path d="M9.99986 11.4287C10.7888 11.4287 11.4284 10.7891 11.4284 10.0001C11.4284 9.21113 10.7888 8.57153 9.99986 8.57153C9.21088 8.57153 8.57129 9.21113 8.57129 10.0001C8.57129 10.7891 9.21088 11.4287 9.99986 11.4287Z" stroke="white" stroke-width="1.71429" stroke-miterlimit="10" stroke-linecap="square"/>
<path d="M3.57115 11.4287C4.36013 11.4287 4.99972 10.7891 4.99972 10.0001C4.99972 9.21113 4.36013 8.57153 3.57115 8.57153C2.78217 8.57153 2.14258 9.21113 2.14258 10.0001C2.14258 10.7891 2.78217 11.4287 3.57115 11.4287Z" stroke="white" stroke-width="1.71429" stroke-miterlimit="10" stroke-linecap="square"/>
<path d="M16.4286 11.4287C17.2175 11.4287 17.8571 10.7891 17.8571 10.0001C17.8571 9.21113 17.2175 8.57153 16.4286 8.57153C15.6396 8.57153 15 9.21113 15 10.0001C15 10.7891 15.6396 11.4287 16.4286 11.4287Z" stroke="white" stroke-width="1.71429" stroke-miterlimit="10" stroke-linecap="square"/>
</svg>
