<svg width="32" height="33" viewBox="0 0 32 33" fill="none" xmlns="http://www.w3.org/2000/svg">
<path d="M18.3999 11.3C18.3999 13.288 20.0119 15.7 21.9999 15.7C23.9879 15.7 25.5999 13.288 25.5999 11.3C25.5999 9.31195 23.9879 7.69995 21.9999 7.69995C20.0119 7.69995 18.3999 9.31195 18.3999 11.3Z" stroke="#6F7787" stroke-width="1.92" stroke-miterlimit="10" stroke-linecap="square"/>
<path d="M22.4002 23.6999L28.0002 23.6999V21.9703C28.0002 20.9919 27.4122 20.1071 26.5034 19.7455C25.4634 19.3311 23.9202 18.8999 22.0002 18.8999C20.0802 18.8999 18.537 19.3311 17.497 19.7455C17.0682 19.9167 16.713 20.2015 16.4546 20.5599" stroke="#6F7787" stroke-width="1.92" stroke-miterlimit="10"/>
<path d="M19.2 26.1L4 26.1L4 23.848C4 22.6272 4.6888 21.5096 5.7864 20.9752C7.0672 20.3512 9.0216 19.7 11.6 19.7C14.1784 19.7 16.1328 20.3512 17.4136 20.9752C18.5112 21.5096 19.2 22.6272 19.2 23.848V26.1Z" stroke="#6F7787" stroke-width="1.92" stroke-miterlimit="10" stroke-linecap="square"/>
<path d="M16.0002 11.2999C16.0002 13.7303 14.0306 16.4999 11.6002 16.4999C9.1698 16.4999 7.2002 13.7303 7.2002 11.2999C7.2002 8.8695 9.1698 6.8999 11.6002 6.8999C14.0306 6.8999 16.0002 8.8695 16.0002 11.2999Z" stroke="#6F7787" stroke-width="1.92" stroke-miterlimit="10" stroke-linecap="square"/>
</svg>
