<svg width="16" height="17" viewBox="0 0 16 17" fill="none" xmlns="http://www.w3.org/2000/svg">
<path d="M9.89019 9.75024L8.66676 10.9571C8.02876 10.5724 7.43608 10.1172 6.8999 9.59996C6.38347 9.06289 5.9283 8.47011 5.54276 7.83253L6.74847 6.6091C6.8215 6.53495 6.87082 6.44074 6.89015 6.33848C6.90948 6.23622 6.89796 6.13051 6.85705 6.03482L5.5999 3.10453C5.55024 2.98899 5.46072 2.89513 5.34765 2.84007C5.23458 2.785 5.10549 2.77239 4.9839 2.80453L2.67876 3.41424C2.56365 3.44409 2.46207 3.51212 2.39065 3.6072C2.31923 3.70229 2.2822 3.8188 2.28562 3.93767C2.43229 6.61869 3.54702 9.15535 5.42276 11.0765C7.34429 12.9529 9.88164 14.0678 12.5633 14.2142C12.6823 14.2182 12.7991 14.1815 12.8944 14.1101C12.9897 14.0388 13.0577 13.937 13.0873 13.8217L13.6965 11.5154C13.7288 11.3939 13.7163 11.2648 13.6613 11.1517C13.6064 11.0386 13.5126 10.9491 13.397 10.8994L10.4662 9.64282C10.3704 9.60131 10.2644 9.58936 10.1618 9.6085C10.0591 9.62764 9.96457 9.677 9.89019 9.75024Z" stroke="#565D6D" stroke-width="1.37143" stroke-miterlimit="10" stroke-linecap="square"/>
</svg>
