<svg width="24" height="24" viewBox="0 0 24 24" fill="none" xmlns="http://www.w3.org/2000/svg">
<path d="M17.1199 4.87798C16.5005 4.17865 15.7444 3.61351 14.8983 3.21735C14.0522 2.8212 13.134 2.60242 12.2001 2.57447C11.2663 2.54653 10.3366 2.71002 9.46833 3.05488C8.60006 3.39973 7.81156 3.91865 7.15137 4.5797" stroke="#6F7787" stroke-width="2.05714" stroke-miterlimit="10" stroke-linecap="square"/>
<path d="M14.5527 7.15968C14.2448 6.80878 13.868 6.52492 13.4457 6.32571C13.0235 6.1265 12.5648 6.0162 12.0981 6.00165C11.6315 5.98711 11.1668 6.06862 10.733 6.24114C10.2992 6.41366 9.9054 6.6735 9.57617 7.00454" stroke="#6F7787" stroke-width="2.05714" stroke-miterlimit="10" stroke-linecap="square"/>
<path d="M2.57129 6.85718C3.93526 6.85718 5.24337 7.39901 6.20784 8.36349C7.17231 9.32796 7.71415 10.6361 7.71415 12L7.71415 12.8915L8.99986 15.8572L7.71415 16.2857V18C7.71415 18.4547 7.53353 18.8907 7.21204 19.2122C6.89055 19.5337 6.45452 19.7143 5.99986 19.7143H4.28557V21.4286" stroke="#6F7787" stroke-width="2.05714" stroke-miterlimit="10" stroke-linecap="square"/>
<path d="M21.4286 6.85718C20.0646 6.85718 18.7565 7.39901 17.792 8.36349C16.8275 9.32796 16.2857 10.6361 16.2857 12V12.8915L15 15.8572L16.2857 16.2857V18C16.2857 18.4547 16.4663 18.8907 16.7878 19.2122C17.1093 19.5337 17.5453 19.7143 18 19.7143H19.7143V21.4286" stroke="#6F7787" stroke-width="2.05714" stroke-miterlimit="10" stroke-linecap="square"/>
</svg>
