<svg width="24" height="24" viewBox="0 0 24 24" fill="none" xmlns="http://www.w3.org/2000/svg">
<path d="M12.0004 5.99998C12.9472 5.99998 13.7147 5.23247 13.7147 4.2857C13.7147 3.33892 12.9472 2.57141 12.0004 2.57141C11.0536 2.57141 10.2861 3.33892 10.2861 4.2857C10.2861 5.23247 11.0536 5.99998 12.0004 5.99998Z" stroke="#6F7787" stroke-width="2.05714" stroke-miterlimit="10" stroke-linecap="square"/>
<path d="M4.57757 18.8572C5.52434 18.8572 6.29185 18.0896 6.29185 17.1429C6.29185 16.1961 5.52434 15.4286 4.57757 15.4286C3.63079 15.4286 2.86328 16.1961 2.86328 17.1429C2.86328 18.0896 3.63079 18.8572 4.57757 18.8572Z" stroke="#6F7787" stroke-width="2.05714" stroke-miterlimit="10" stroke-linecap="square"/>
<path d="M19.4233 18.8572C20.37 18.8572 21.1376 18.0896 21.1376 17.1429C21.1376 16.1961 20.37 15.4286 19.4233 15.4286C18.4765 15.4286 17.709 16.1961 17.709 17.1429C17.709 18.0896 18.4765 18.8572 19.4233 18.8572Z" stroke="#6F7787" stroke-width="2.05714" stroke-miterlimit="10" stroke-linecap="square"/>
<path d="M7.09635 5.83374C5.57518 6.89069 4.43882 8.41349 3.85859 10.1726C3.27835 11.9317 3.28569 13.8317 3.87949 15.5863" stroke="#6F7787" stroke-width="2.05714" stroke-miterlimit="10" stroke-linecap="square"/>
<path d="M18.4202 18.5228C17.1964 19.9179 15.5512 20.8759 13.7339 21.2518C11.9166 21.6276 10.0264 21.4008 8.34961 20.6057" stroke="#6F7787" stroke-width="2.05714" stroke-miterlimit="10" stroke-linecap="square"/>
<path d="M20.5398 12.1329C20.3828 10.2855 19.6311 8.5389 18.3974 7.15498C17.1637 5.77105 15.5145 4.82444 13.6973 4.45715" stroke="#6F7787" stroke-width="2.05714" stroke-miterlimit="10" stroke-linecap="square"/>
</svg>
