<svg width="24" height="24" viewBox="0 0 24 24" fill="none" xmlns="http://www.w3.org/2000/svg">
<path d="M3.42871 20.5715L5.54071 18.4595" stroke="#6F7787" stroke-width="2.05714" stroke-miterlimit="10" stroke-linecap="square"/>
<path d="M6.82629 11.1121L5.54058 12.3978C4.73675 13.2016 4.28516 14.2918 4.28516 15.4286C4.28516 16.5654 4.73675 17.6557 5.54058 18.4595C6.34441 19.2633 7.43464 19.7149 8.57144 19.7149C9.70823 19.7149 10.7985 19.2633 11.6023 18.4595L12.888 17.1738L6.82629 11.1121Z" stroke="#6F7787" stroke-width="2.05714" stroke-miterlimit="10" stroke-linecap="square"/>
<path d="M20.571 3.42859L18.459 5.54059" stroke="#6F7787" stroke-width="2.05714" stroke-miterlimit="10" stroke-linecap="square"/>
<path d="M17.174 12.888L18.4597 11.6023C19.2636 10.7985 19.7152 9.70823 19.7152 8.57144C19.7152 7.43464 19.2636 6.34441 18.4597 5.54058C17.6559 4.73675 16.5657 4.28516 15.4289 4.28516C14.2921 4.28516 13.2019 4.73675 12.398 5.54058L11.1123 6.82629L17.174 12.888Z" stroke="#6F7787" stroke-width="2.05714" stroke-miterlimit="10" stroke-linecap="square"/>
<path d="M10.2856 11.1428L8.57129 12.8571" stroke="#6F7787" stroke-width="2.05714" stroke-miterlimit="10" stroke-linecap="square"/>
<path d="M12.8569 13.7142L11.1426 15.4285" stroke="#6F7787" stroke-width="2.05714" stroke-miterlimit="10" stroke-linecap="square"/>
</svg>
