<svg width="24" height="24" viewBox="0 0 24 24" fill="none" xmlns="http://www.w3.org/2000/svg">
<path d="M18.0001 21.4285L18.0001 16.0285C18.7955 15.3194 19.4349 14.4527 19.8775 13.4834C20.3202 12.5142 20.5565 11.4634 20.5716 10.398C20.58 8.37733 19.8041 6.43227 18.407 4.97239C17.01 3.51251 15.1009 2.65175 13.0819 2.57138C12.0501 2.54134 11.0227 2.71866 10.0607 3.09287C9.0987 3.46707 8.22156 4.03054 7.48127 4.74989C6.74098 5.46924 6.15258 6.32985 5.75093 7.28073C5.34929 8.23162 5.14256 9.25344 5.143 10.2857V11.1428L3.42871 15.4285L5.143 16.2857L5.143 19.7142C5.143 20.1689 5.32361 20.6049 5.6451 20.9264C5.96659 21.2479 6.40263 21.4285 6.85728 21.4285H10.2859C10.8487 21.4285 11.406 21.3177 11.9259 21.1023C12.4459 20.8869 12.9183 20.5712 13.3163 20.1733C13.7143 19.7753 14.03 19.3029 14.2453 18.7829C14.4607 18.2629 14.5716 17.7056 14.5716 17.1428L14.5716 12.8571" stroke="#6F7787" stroke-width="2.05714" stroke-miterlimit="10" stroke-linecap="square"/>
<path d="M14.5714 12.8571C15.9916 12.8571 17.1429 11.7058 17.1429 10.2857C17.1429 8.8655 15.9916 7.71423 14.5714 7.71423C13.1513 7.71423 12 8.8655 12 10.2857C12 11.7058 13.1513 12.8571 14.5714 12.8571Z" stroke="#6F7787" stroke-width="2.05714" stroke-miterlimit="10" stroke-linecap="square"/>
</svg>
