<svg width="32" height="33" viewBox="0 0 32 33" fill="none" xmlns="http://www.w3.org/2000/svg">
<path d="M15.9998 19.7C17.7671 19.7 19.1998 18.2674 19.1998 16.5C19.1998 14.7327 17.7671 13.3 15.9998 13.3C14.2325 13.3 12.7998 14.7327 12.7998 16.5C12.7998 18.2674 14.2325 19.7 15.9998 19.7Z" stroke="#6F7787" stroke-width="1.92" stroke-miterlimit="10" stroke-linecap="square"/>
<path d="M24.8002 16.5C24.7999 15.9157 24.7418 15.3328 24.6266 14.76L27.5922 12.58L25.1922 8.42L21.8106 9.9032C20.9353 9.12965 19.9143 8.53887 18.8074 8.1656L18.4002 4.5L13.6002 4.5L13.193 8.1656C12.0861 8.53887 11.0651 9.12965 10.1898 9.9032L6.8082 8.42L4.4082 12.58L7.3738 14.7616C7.14235 15.9101 7.14235 17.0931 7.3738 18.2416L4.4082 20.42L6.8082 24.58L10.1898 23.0984C11.0651 23.872 12.0861 24.4627 13.193 24.836L13.6002 28.5H18.4002L18.8074 24.8344C19.9143 24.4611 20.9353 23.8704 21.8106 23.0968L25.1922 24.58L27.5922 20.42L24.6266 18.2384C24.7417 17.6661 24.7998 17.0838 24.8002 16.5Z" stroke="#6F7787" stroke-width="1.92" stroke-miterlimit="10" stroke-linecap="square"/>
</svg>
